<svg xmlns="http://www.w3.org/2000/svg" width="1600" height="1000" viewBox="0 0 1600 1000" fill="none">
  <defs>
    <linearGradient id="sky" x1="0" y1="0" x2="1" y2="1">
      <stop offset="0%" stop-color="#0f172a" />
      <stop offset="45%" stop-color="#0e7490" />
      <stop offset="100%" stop-color="#38bdf8" />
    </linearGradient>
    <linearGradient id="sun" x1="0" y1="0" x2="0" y2="1">
      <stop offset="0%" stop-color="#fde68a" stop-opacity="0.95" />
      <stop offset="100%" stop-color="#f97316" stop-opacity="0.25" />
    </linearGradient>
    <linearGradient id="hills" x1="0" y1="0" x2="1" y2="0">
      <stop offset="0%" stop-color="#0b1220" stop-opacity="0.8" />
      <stop offset="100%" stop-color="#0f172a" stop-opacity="0.95" />
    </linearGradient>
  </defs>

  <rect width="1600" height="1000" fill="url(#sky)" />
  <circle cx="1220" cy="220" r="140" fill="url(#sun)" />

  <path d="M0 720C220 660 420 640 640 690C820 730 1020 760 1280 720C1400 700 1520 660 1600 630V1000H0V720Z" fill="url(#hills)" />
  <path d="M0 780C240 740 480 740 740 800C920 840 1180 870 1600 820V1000H0V780Z" fill="#0b1120" opacity="0.9" />

  <g fill="#0b1120">
    <rect x="720" y="360" width="160" height="260" rx="10" />
    <rect x="770" y="300" width="60" height="80" rx="8" />
    <rect x="792" y="240" width="16" height="60" rx="6" />
    <rect x="700" y="420" width="40" height="120" rx="6" />
    <rect x="860" y="420" width="40" height="120" rx="6" />
    <polygon points="800,260 740,320 860,320" />
    <rect x="785" y="470" width="30" height="60" rx="6" fill="#0f172a" />
    <rect x="760" y="520" width="80" height="100" rx="12" />
  </g>

  <g fill="#e2e8f0" opacity="0.08">
    <circle cx="260" cy="220" r="6" />
    <circle cx="320" cy="260" r="4" />
    <circle cx="420" cy="200" r="5" />
    <circle cx="520" cy="260" r="3" />
    <circle cx="600" cy="210" r="4" />
  </g>
</svg>
